# xmcd CD database file
#
# Track frame offsets:
#	150
#	16810
#	27487
#	41047
#	55555
#	69570
#	86857
#	110130
#	133812
#	150582
#	163832
#	179562
#	196902
#	224115
#	236735
#	250097
#
# Disc length: 3701 seconds
#
# Revision: 1
# Processed by: cddbd v1.5.2PL0 Copyright (c) Steve Scherf et al.
# Submitted via: CDex 1.70beta2
#
DISCID=ec0e7310
DTITLE=Manhattan Transfer - The very best of Manhattan Transfer
DYEAR=1987
DGENRE=Jazz
TTITLE0=Manhattan Transfer - Boy from New York City
TTITLE1=Manhattan Transfer - Trickle Trickle
TTITLE2=Manhattan Transfer - Gloria
TTITLE3=Manhattan Transfer - Operator
TTITLE4=Manhattan Transfer - Tuxedo Junction
TTITLE5=Manhattan Transfer - Four Brothers
TTITLE6=Manhattan Transfer - Ray's Rockhouse
TTITLE7=Soul food to go
TTITLE8=Spice on life
TTITLE9=Baby come back to me
TTITLE10=Candy
TTITLE11=A Nightingale sang in berkeley square
TTITLE12=Birdland
TTITLE13=Java Jive
TTITLE14=Route 66
TTITLE15=Twilight Zone
EXTD=YEAR: 1987
EXTT0=
EXTT1=
EXTT2=
EXTT3=
EXTT4=
EXTT5=
EXTT6=
EXTT7=
EXTT8=
EXTT9=
EXTT10=
EXTT11=
EXTT12=
EXTT13=
EXTT14=
EXTT15=
PLAYORDER=
